<?xml version="1.0" standalone="no"?>
<!DOCTYPE svg PUBLIC "-//W3C//DTD SVG 20010904//EN"
 "http://www.w3.org/TR/2001/REC-SVG-20010904/DTD/svg10.dtd">
<svg version="1.0" xmlns="http://www.w3.org/2000/svg"
 width="500.000000pt" height="149.000000pt" viewBox="0 0 500.000000 149.000000"
 preserveAspectRatio="xMidYMid meet">

<g transform="translate(0.000000,149.000000) scale(0.100000,-0.100000)"
fill="#000000" stroke="none">
<path d="M4397 1413 c-3 -5 -62 -219 -131 -478 -70 -259 -131 -483 -137 -499
-7 -22 -6 -32 3 -38 22 -13 23 -11 44 75 12 45 73 275 138 510 64 236 116 430
116 433 0 7 -29 4 -33 -3z"/>
<path d="M4496 1401 c-3 -4 -66 -232 -140 -508 -75 -276 -139 -508 -142 -516
-3 -10 2 -18 16 -22 12 -4 23 -5 25 -3 1 1 64 230 139 508 75 278 139 512 142
521 5 17 -31 34 -40 20z"/>
<path d="M4243 1384 c-3 -9 -59 -210 -123 -447 -85 -314 -115 -436 -107 -445
9 -11 12 -11 18 0 3 7 59 208 124 447 64 239 119 441 122 448 3 7 -2 13 -11
13 -9 0 -19 -7 -23 -16z"/>
<path d="M4433 868 c-78 -288 -141 -523 -140 -524 1 -1 11 -4 23 -8 19 -6 28
23 161 511 124 459 138 519 125 531 -9 6 -19 12 -22 12 -3 0 -70 -235 -147
-522z"/>
<path d="M4639 1317 c-33 -126 -261 -964 -264 -974 -3 -9 6 -13 24 -13 26 0
29 4 49 78 94 349 243 899 247 909 2 6 -7 19 -20 27 -24 16 -24 15 -36 -27z"/>
<path d="M2117 1320 c-90 -4 -163 -12 -169 -18 -22 -22 0 -39 56 -44 92 -8 87
21 84 -407 l-3 -376 -45 -3 c-77 -4 -92 -10 -88 -35 l3 -22 240 0 240 0 0 25
c0 23 -4 25 -58 28 -51 3 -59 6 -67 28 -6 15 -10 197 -10 430 0 317 -3 404
-12 402 -7 0 -84 -4 -171 -8z"/>
<path d="M2920 1323 c-144 -24 -234 -120 -247 -265 l-6 -58 -72 0 c-77 0 -100
-12 -93 -47 3 -15 16 -19 83 -23 l80 -5 2 -210 c2 -120 -1 -216 -7 -225 -5 -9
-31 -17 -67 -20 -54 -5 -58 -7 -58 -30 l0 -25 246 -3 c210 -2 248 0 259 13 23
28 -5 45 -74 45 -35 0 -67 5 -74 12 -9 9 -12 74 -12 230 l0 218 98 0 c115 0
145 15 106 54 -12 12 -37 16 -110 16 l-94 0 0 78 c0 129 30 192 92 192 33 0
36 -12 8 -40 -42 -42 -16 -111 49 -131 33 -10 45 -9 78 7 51 25 69 64 54 115
-22 73 -133 120 -241 102z"/>
<path d="M3383 1319 c-60 -17 -92 -94 -63 -150 16 -28 63 -49 115 -49 118 0
148 151 39 196 -38 16 -46 16 -91 3z"/>
<path d="M52 1297 c-25 -29 -4 -44 70 -50 116 -10 108 18 108 -393 l0 -353
-22 -15 c-14 -10 -44 -16 -83 -16 -68 0 -90 -12 -74 -42 9 -17 29 -18 343 -18
251 0 353 4 410 15 221 42 356 210 356 441 0 209 -117 362 -321 421 -81 23
-769 32 -787 10z m684 -81 c101 -47 147 -157 148 -356 0 -201 -41 -301 -146
-353 -48 -25 -70 -29 -143 -30 -133 -3 -125 -27 -125 382 0 362 1 373 53 385
48 10 162 -5 213 -28z"/>
<path d="M4729 1310 c0 -3 -60 -223 -133 -490 -73 -267 -132 -486 -131 -488 2
-2 13 0 26 3 22 6 33 39 151 473 125 461 126 467 107 487 -10 11 -19 17 -20
15z"/>
<path d="M3992 1226 c-90 -98 -137 -238 -129 -381 9 -165 17 -159 75 56 28
107 63 233 76 282 13 48 23 87 21 87 -1 0 -21 -20 -43 -44z"/>
<path d="M4674 798 c-66 -244 -120 -444 -119 -446 5 -6 93 34 142 64 106 67
185 172 229 304 28 83 26 224 -5 317 -22 69 -94 192 -117 200 -6 2 -61 -184
-130 -439z"/>
<path d="M1510 1000 c-80 -17 -167 -67 -210 -121 -50 -63 -65 -108 -64 -194 0
-58 5 -79 29 -124 55 -101 165 -159 316 -168 154 -10 271 44 335 153 47 81 -2
107 -56 29 -57 -82 -135 -122 -217 -111 -99 13 -163 78 -171 172 l-4 54 237 0
237 0 -7 43 c-19 125 -63 190 -158 236 -70 34 -186 48 -267 31z m172 -79 c28
-25 32 -36 36 -91 3 -46 1 -65 -9 -71 -8 -5 -65 -9 -128 -9 l-114 0 5 43 c15
133 127 202 210 128z"/>
<path d="M3335 993 c-141 -4 -157 -8 -153 -36 3 -18 13 -23 68 -32 l65 -10 0
-220 0 -220 -57 -3 c-63 -3 -89 -21 -68 -47 10 -13 50 -15 240 -15 190 0 230
2 240 15 21 25 -5 45 -59 45 -26 0 -52 5 -59 12 -9 9 -12 82 -12 265 l0 253
-47 -2 c-27 -1 -97 -4 -158 -5z"/>
<path d="M2510 199 c0 -5 9 -9 20 -9 16 0 20 -8 23 -62 l3 -63 2 63 c2 55 4
62 22 62 11 0 20 4 20 9 0 5 -20 9 -45 9 -25 0 -45 -4 -45 -9z"/>
<path d="M2724 196 c-3 -7 -4 -38 -2 -67 3 -53 4 -54 36 -57 17 -2 32 1 32 6
0 5 -11 7 -25 4 -22 -4 -25 -1 -25 28 0 27 3 32 20 27 11 -3 23 -1 26 4 3 5
-6 9 -20 9 -19 0 -26 5 -26 20 0 15 7 20 25 20 14 0 25 5 25 10 0 15 -60 12
-66 -4z"/>
<path d="M2939 192 c-28 -23 -30 -73 -4 -102 18 -20 75 -28 75 -11 0 5 -9 7
-20 4 -28 -7 -60 24 -60 57 0 33 21 53 55 53 14 0 25 3 25 8 0 16 -47 9 -71
-9z"/>
<path d="M3143 140 c0 -49 2 -63 6 -40 5 31 10 35 39 38 30 3 32 1 32 -27 0
-17 5 -31 10 -31 6 0 10 27 10 60 0 33 -4 60 -10 60 -5 0 -10 -11 -10 -25 0
-22 -4 -25 -34 -25 -32 0 -35 3 -39 33 -2 17 -4 -2 -4 -43z"/>
<path d="M3620 190 c-41 -41 -16 -120 38 -120 23 0 62 44 62 70 0 26 -39 70
-61 70 -10 0 -28 -9 -39 -20z m76 -25 c16 -63 -32 -109 -68 -65 -33 41 -15 90
32 90 23 0 31 -5 36 -25z"/>
<path d="M4049 192 c-43 -36 -18 -122 36 -122 54 0 79 86 36 122 -13 10 -29
18 -36 18 -7 0 -23 -8 -36 -18z m69 -14 c25 -25 2 -98 -31 -98 -21 0 -47 34
-47 60 0 31 17 50 45 50 12 0 26 -5 33 -12z"/>
<path d="M4301 197 c-63 -31 -40 -122 30 -122 31 0 34 3 37 33 3 28 0 32 -20
31 -17 -1 -18 -3 -5 -6 21 -5 23 -41 2 -49 -25 -10 -65 23 -65 54 0 36 17 52
52 52 15 0 28 5 28 10 0 14 -30 12 -59 -3z"/>
<path d="M4500 140 c0 -40 4 -70 10 -70 6 0 10 30 10 70 0 40 -4 70 -10 70 -6
0 -10 -30 -10 -70z"/>
<path d="M4654 196 c-3 -7 -4 -38 -2 -67 3 -53 4 -54 36 -57 17 -2 32 1 32 5
0 5 -12 9 -27 8 -22 0 -27 4 -27 25 0 19 5 25 21 25 12 0 25 4 29 8 4 4 -4 7
-18 7 -13 0 -27 3 -31 6 -12 12 6 34 29 34 13 0 24 5 24 10 0 15 -60 12 -66
-4z"/>
<path d="M4862 198 c-21 -21 -13 -47 18 -63 17 -9 30 -22 30 -30 0 -15 -34
-30 -50 -20 -5 3 -10 1 -10 -4 0 -15 43 -14 58 1 21 21 13 47 -18 63 -16 9
-30 19 -30 24 0 14 28 33 40 26 5 -3 10 -1 10 4 0 15 -33 14 -48 -1z"/>
<path d="M3370 133 c0 -36 3 -63 7 -59 4 4 6 29 6 56 -1 28 -1 50 1 50 2 0 20
-25 40 -55 20 -30 38 -55 41 -55 3 0 4 30 3 68 l-1 67 -6 -54 -6 -55 -32 52
c-18 29 -37 52 -43 52 -6 0 -10 -27 -10 -67z"/>
<path d="M3840 151 c0 -67 7 -81 41 -81 16 0 29 4 29 9 0 4 -11 6 -25 3 -24
-4 -25 -3 -25 57 0 34 -4 61 -10 61 -5 0 -10 -22 -10 -49z"/>
</g>
</svg>
