<?xml version="1.0" encoding="UTF-8"?>
<svg version="1.1" xmlns="http://www.w3.org/2000/svg" width="500" height="149">
<path d="M0 0 C0.69781586 -0.00817749 1.39563171 -0.01635498 2.11459351 -0.02478027 C4.43950546 -0.04971529 6.7643552 -0.06618663 9.08935547 -0.08056641 C9.88612576 -0.08589008 10.68289604 -0.09121376 11.50381088 -0.09669876 C15.73560372 -0.12348797 19.96736674 -0.14282883 24.19921875 -0.15722656 C27.67930958 -0.17047052 31.15880069 -0.19813431 34.63867188 -0.23925781 C38.85448437 -0.28907601 43.06976016 -0.31340958 47.28585434 -0.32045364 C48.8811821 -0.32709691 50.47650122 -0.3421339 52.07165909 -0.36634445 C67.37283962 -0.5849874 81.68909018 2.11877426 93.25341797 13.00146484 C102.32998602 22.64046981 105.86314182 34.19311839 105.58544922 47.26318359 C104.29488303 62.15433197 98.8881596 73.14416323 87.42529297 82.79833984 C74.865165 91.44673304 59.16615587 91.3529854 44.55810547 91.36083984 C43.14325935 91.36405899 41.72841356 91.36742354 40.31356812 91.3709259 C37.36691515 91.37687676 34.42029136 91.37876961 31.47363281 91.37817383 C27.69745176 91.37807154 23.92145592 91.39181016 20.14531898 91.40894604 C17.231996 91.42004803 14.31871841 91.42209372 11.40537643 91.4215641 C10.01230598 91.4227436 8.61923434 91.42716373 7.22618484 91.43489647 C5.28558013 91.44467482 3.34492036 91.44055965 1.40429688 91.43579102 C0.30115143 91.43721603 -0.80199402 91.43864105 -1.93856812 91.44010925 C-4.66845703 91.19287109 -4.66845703 91.19287109 -7.66845703 89.19287109 C-6.79345703 84.31787109 -6.79345703 84.31787109 -5.66845703 83.19287109 C-2.04672961 82.86691563 1.57609507 82.67906573 5.20654297 82.47412109 C8.19652307 82.54151661 8.19652307 82.54151661 9.33154297 81.19287109 C9.42594275 78.92295223 9.44896523 76.65005142 9.44506836 74.37817383 C9.44521439 73.66601715 9.44536041 72.95386047 9.44551086 72.22012329 C9.44481167 69.85553997 9.43701903 67.49103448 9.42919922 65.12646484 C9.42733506 63.49121646 9.42591115 61.85596752 9.4249115 60.22071838 C9.42108615 55.90852324 9.41125572 51.59636157 9.40020752 47.28417969 C9.38999377 42.88721164 9.38541396 38.4902382 9.38037109 34.09326172 C9.36963346 25.45978279 9.35255684 16.8263311 9.33154297 8.19287109 C8.27193359 8.13228516 7.21232422 8.07169922 6.12060547 8.00927734 C4.73257076 7.92486983 3.34455065 7.84022193 1.95654297 7.75537109 C1.25787109 7.71605469 0.55919922 7.67673828 -0.16064453 7.63623047 C-5.44189453 7.30615234 -5.44189453 7.30615234 -7.66845703 6.19287109 C-7.71117803 4.52675204 -7.70909535 2.85904224 -7.66845703 1.19287109 C-5.78139573 -0.69419021 -2.5109831 0.02548441 0 0 Z M36.33154297 10.19287109 C35.72815557 13.2959382 35.72815557 13.2959382 35.82983398 16.91162109 C35.824431 17.58999023 35.81902802 18.26835938 35.8134613 18.96728516 C35.80095409 21.20959103 35.81747632 23.45061779 35.83544922 25.69287109 C35.83529427 27.25081449 35.83380606 28.80875827 35.83103943 30.36669922 C35.82965456 33.63184651 35.84222763 36.89655501 35.86499023 40.16162109 C35.89337559 44.3484103 35.89063896 48.5344703 35.87790012 52.72131348 C35.87094741 55.93837724 35.87872747 59.15527224 35.89115715 62.37231445 C35.89567565 63.91609042 35.89600497 65.45988449 35.89209175 67.00366211 C35.8891834 69.16085995 35.90566655 71.3170505 35.92749023 73.47412109 C35.93289322 74.70195313 35.9382962 75.92978516 35.94386292 77.19482422 C36.09058834 80.16462818 36.09058834 80.16462818 37.66905212 82.08789062 C42.45351946 85.2679039 50.83094296 83.5972808 56.22998047 82.72412109 C62.83401443 81.01723232 67.92466725 78.06348941 71.57763672 72.18896484 C78.67340615 57.6595322 78.46338996 37.28088565 73.33154297 22.19287109 C69.7988817 14.92955279 65.47989339 10.64843264 57.76904297 7.94287109 C51.00675295 6.49100612 41.53089763 4.85153738 36.33154297 10.19287109 Z " fill="#FBFBFB" transform="translate(11.66845703125,17.80712890625)"/>
<path d="M0 0 C3.90928418 2.55189384 7.01504799 5.55205022 8.23046875 10.16015625 C8.51194058 14.18444262 7.81254202 15.95087083 5.25 19.0390625 C4.404375 19.7196875 3.55875 20.4003125 2.6875 21.1015625 C2.1925 21.5965625 2.1925 21.5965625 1.6875 22.1015625 C-2.95390538 22.69761666 -6.51822984 22.45614739 -10.8125 20.5390625 C-13.3125 18.1015625 -13.3125 18.1015625 -14.4375 14.6640625 C-14.28897801 10.43118575 -13.25700127 9.04606377 -10.3125 6.1015625 C-12.2925 6.1015625 -14.2725 6.1015625 -16.3125 6.1015625 C-19.55789753 11.40904908 -19.84076559 15.93475399 -20 21.9765625 C-20.03416016 22.85570313 -20.06832031 23.73484375 -20.10351562 24.640625 C-20.1854314 26.79383955 -20.25065579 28.94767801 -20.3125 31.1015625 C-19.71187744 31.09632568 -19.11125488 31.09108887 -18.49243164 31.08569336 C-15.78663162 31.06498236 -13.08084823 31.05192125 -10.375 31.0390625 C-9.42947266 31.03068359 -8.48394531 31.02230469 -7.50976562 31.01367188 C-6.16108398 31.00883789 -6.16108398 31.00883789 -4.78515625 31.00390625 C-3.53617554 30.99605103 -3.53617554 30.99605103 -2.26196289 30.98803711 C-0.3125 31.1015625 -0.3125 31.1015625 0.6875 32.1015625 C0.875 34.5390625 0.875 34.5390625 0.6875 37.1015625 C0.0275 37.7615625 -0.6325 38.4215625 -1.3125 39.1015625 C-7.5825 39.1015625 -13.8525 39.1015625 -20.3125 39.1015625 C-20.3125 53.6215625 -20.3125 68.1415625 -20.3125 83.1015625 C-15.3625 83.4315625 -10.4125 83.7615625 -5.3125 84.1015625 C-4.9825 85.7515625 -4.6525 87.4015625 -4.3125 89.1015625 C-6.80511318 91.59417568 -7.5675679 91.35399002 -11.00585938 91.36035156 C-12.46747498 91.36980804 -12.46747498 91.36980804 -13.95861816 91.37945557 C-15.01383667 91.3754071 -16.06905518 91.37135864 -17.15625 91.3671875 C-18.23628296 91.36910095 -19.31631592 91.3710144 -20.42907715 91.37298584 C-22.71557854 91.37434857 -25.00208764 91.37064602 -27.28857422 91.36230469 C-30.79802755 91.35160662 -34.30696893 91.36219723 -37.81640625 91.375 C-40.0338553 91.37367842 -42.25130403 91.37111606 -44.46875 91.3671875 C-45.52396851 91.37123596 -46.57918701 91.37528442 -47.66638184 91.37945557 C-48.64079224 91.37315125 -49.61520264 91.36684692 -50.61914062 91.36035156 C-51.47914673 91.35876038 -52.33915283 91.35716919 -53.22521973 91.35552979 C-55.3125 91.1015625 -55.3125 91.1015625 -57.3125 89.1015625 C-56.9825 87.4515625 -56.6525 85.8015625 -56.3125 84.1015625 C-50.3725 83.1115625 -50.3725 83.1115625 -44.3125 82.1015625 C-43.9825 67.9115625 -43.6525 53.7215625 -43.3125 39.1015625 C-47.9325 39.1015625 -52.5525 39.1015625 -57.3125 39.1015625 C-58.3025 38.4415625 -59.2925 37.7815625 -60.3125 37.1015625 C-59.4375 32.2265625 -59.4375 32.2265625 -58.3125 31.1015625 C-55.78200598 31.02842683 -53.27945163 31.00908723 -50.75 31.0390625 C-50.03908203 31.04357422 -49.32816406 31.04808594 -48.59570312 31.05273438 C-46.83459987 31.06455386 -45.07353964 31.08248987 -43.3125 31.1015625 C-43.33828125 30.05097656 -43.3640625 29.00039063 -43.390625 27.91796875 C-43.20768749 18.98147143 -39.81912064 12.19261992 -34.0625 5.4765625 C-25.039001 -2.31645937 -11.0996741 -5.11924624 0 0 Z " fill="#F8F8F8" transform="translate(309.3125,17.8984375)"/>
<path d="M0 0 C0.86496094 -0.020625 1.72992188 -0.04125 2.62109375 -0.0625 C11.91074476 -0.11821005 19.14903769 2.23255887 26.359375 8.14453125 C33.34412997 15.4406222 34.375 23.4630447 34.375 33.25 C18.865 33.25 3.355 33.25 -12.625 33.25 C-10.15739225 44.69662153 -10.15739225 44.69662153 -2.5625 52.125 C3.624335 54.34217048 10.66424388 54.36450272 16.6875 51.6875 C20.80930552 49.3140833 23.56292045 46.02572051 26.375 42.25 C26.99375 41.445625 27.6125 40.64125 28.25 39.8125 C28.806875 39.0390625 28.806875 39.0390625 29.375 38.25 C31.025 38.58 32.675 38.91 34.375 39.25 C35.05859375 40.9453125 35.05859375 40.9453125 35.375 43.25 C31.35079888 51.51666399 24.73989585 57.66654166 16.25 61.0625 C4.58472586 64.89827679 -8.01431135 64.15802813 -19.20703125 59.078125 C-26.72317953 55.03959757 -32.47071749 50.6899508 -35.7109375 42.5078125 C-37.84986913 34.8844408 -37.97262807 26.08260137 -34.625 18.8125 C-26.84361509 5.72760136 -14.83894442 0.08614772 0 0 Z M-8.625 11.25 C-11.31099998 16.15889651 -11.75031823 19.72940223 -11.625 25.25 C-7.81251574 25.27887236 -4.0000593 25.29675492 -0.1875 25.3125 C0.90111328 25.32087891 1.98972656 25.32925781 3.11132812 25.33789062 C4.66303711 25.34272461 4.66303711 25.34272461 6.24609375 25.34765625 C7.20443115 25.35289307 8.16276855 25.35812988 9.15014648 25.36352539 C11.34785339 25.5005313 11.34785339 25.5005313 12.375 24.25 C12.85498572 18.25017852 11.82387809 13.40486096 8.07421875 8.57421875 C5.19763273 6.33246551 2.33291312 6.7834026 -1.18359375 6.90625 C-4.75062615 7.40848816 -6.3084836 8.5122988 -8.625 11.25 Z " fill="#F6F6F6" transform="translate(159.625,47.75)"/>
<path d="M0 0 C0.33 27.72 0.66 55.44 1 84 C3.43387753 85.21693876 5.41838846 85.31959896 8.125 85.5625 C9.49011719 85.68818359 9.49011719 85.68818359 10.8828125 85.81640625 C11.58148438 85.87699219 12.28015625 85.93757813 13 86 C13.625 88.375 13.625 88.375 14 91 C11.56425895 93.43574105 10.93675762 93.25551734 7.59790039 93.2746582 C6.68677994 93.28419022 5.77565948 93.29372223 4.83692932 93.30354309 C3.85046921 93.30263168 2.86400909 93.30172028 1.84765625 93.30078125 C0.8365831 93.30506638 -0.17449005 93.3093515 -1.21620178 93.31376648 C-3.35726166 93.31951661 -5.49834108 93.32000504 -7.6394043 93.31567383 C-10.92074843 93.31251612 -14.20118947 93.33595714 -17.48242188 93.36132812 C-19.55989469 93.36360121 -21.63736994 93.36430457 -23.71484375 93.36328125 C-24.69927963 93.372491 -25.68371552 93.38170074 -26.69798279 93.39118958 C-27.6122554 93.38496078 -28.52652802 93.37873199 -29.46850586 93.37231445 C-30.67524208 93.37325859 -30.67524208 93.37325859 -31.90635681 93.3742218 C-34.47831226 92.91450555 -35.36538307 91.98383045 -37 90 C-36.34 88.68 -35.68 87.36 -35 86 C-29.06 85.505 -29.06 85.505 -23 85 C-23 59.92 -23 34.84 -23 9 C-27.29 8.67 -31.58 8.34 -36 8 C-36.66 6.68 -37.32 5.36 -38 4 C-36.22766021 1.72040433 -35.25850225 1.05054298 -32.3828125 0.48828125 C-21.53851682 -0.09684262 -10.92129389 0 0 0 Z " fill="#FBFBFB" transform="translate(231,16)"/>
<path d="M0 0 C5.12518079 1.7083936 7.30736183 6.50636481 10 11 C16.74783616 25.06372996 19.0403247 41.07528839 13.9375 56.1875 C8.22514924 70.86040098 -2.64867542 82.45028044 -17 89 C-19.65051729 89.7430784 -22.32212252 90.35856651 -25 91 C-10.31500018 36.05949289 -10.31500018 36.05949289 -5.18991089 17.20407104 C-4.81461719 15.82285804 -4.44003927 14.44145034 -4.06619263 13.05984497 C-3.55931715 11.18774583 -3.0492946 9.31649959 -2.5390625 7.4453125 C-2.26271973 6.42969238 -1.98637695 5.41407227 -1.70166016 4.36767578 C-1 2 -1 2 0 0 Z " fill="#F9F9F9" transform="translate(479,24)"/>
<path d="M0 0 C1.24716797 0.00451172 2.49433594 0.00902344 3.77929688 0.01367188 C6.83208221 0.02536837 9.88476498 0.04175914 12.9375 0.0625 C12.94780746 0.67193451 12.95811493 1.28136902 12.96873474 1.90927124 C13.07666953 8.23552465 13.19127788 14.56163185 13.30981445 20.88769531 C13.35320516 23.25062001 13.39487713 25.61357691 13.43481445 27.9765625 C13.49241693 31.36728636 13.5561401 34.7578475 13.62109375 38.1484375 C13.63780624 39.20993011 13.65451874 40.27142273 13.67173767 41.36508179 C13.7016555 42.83638046 13.7016555 42.83638046 13.73217773 44.33740234 C13.75549416 45.63646011 13.75549416 45.63646011 13.77928162 46.96176147 C13.80846592 49.12007893 13.80846592 49.12007893 14.9375 51.0625 C17.73699755 51.62869052 20.53668265 51.95731508 23.37109375 52.3046875 C25.9375 53.0625 25.9375 53.0625 27.28515625 55.1328125 C27.50042969 55.76960938 27.71570313 56.40640625 27.9375 57.0625 C26.30288307 59.04633045 25.41581226 59.97700555 22.84385681 60.4367218 C22.039366 60.43609238 21.23487518 60.43546295 20.40600586 60.43481445 C19.03459694 60.44415764 19.03459694 60.44415764 17.63548279 60.45368958 C16.65104691 60.44447983 15.66661102 60.43527008 14.65234375 60.42578125 C13.64031387 60.42627975 12.628284 60.42677826 11.58558655 60.42729187 C9.44627926 60.42495112 7.30696923 60.41522261 5.16772461 60.39868164 C1.88435385 60.37506727 -1.39820642 60.37812348 -4.68164062 60.38476562 C-6.75781736 60.37918975 -8.83399067 60.37208045 -10.91015625 60.36328125 C-11.89661636 60.36419266 -12.88307648 60.36510406 -13.89942932 60.36604309 C-14.81054977 60.35651108 -15.72167023 60.34697906 -16.66040039 60.3371582 C-17.46409561 60.33255081 -18.26779083 60.32794342 -19.09584045 60.32319641 C-21.0625 60.0625 -21.0625 60.0625 -23.0625 58.0625 C-22.6875 55.4375 -22.6875 55.4375 -22.0625 53.0625 C-21.28003906 53.01351562 -20.49757813 52.96453125 -19.69140625 52.9140625 C-18.67949219 52.83929688 -17.66757812 52.76453125 -16.625 52.6875 C-15.11099609 52.58308594 -15.11099609 52.58308594 -13.56640625 52.4765625 C-12.74011719 52.33992188 -11.91382813 52.20328125 -11.0625 52.0625 C-9.34447618 48.62645235 -9.9428382 44.67811104 -9.96484375 40.8984375 C-9.9662587 39.99122955 -9.96767365 39.08402161 -9.96913147 38.14932251 C-9.97473904 35.24534845 -9.98729282 32.34145085 -10 29.4375 C-10.00501402 27.47135528 -10.0095771 25.50520935 -10.01367188 23.5390625 C-10.02471094 18.7135121 -10.04198065 13.88801903 -10.0625 9.0625 C-10.90554688 9.01351562 -11.74859375 8.96453125 -12.6171875 8.9140625 C-14.26074219 8.80191406 -14.26074219 8.80191406 -15.9375 8.6875 C-17.02804687 8.61789063 -18.11859375 8.54828125 -19.2421875 8.4765625 C-22.0625 8.0625 -22.0625 8.0625 -24.0625 6.0625 C-23.6875 3.4375 -23.6875 3.4375 -23.0625 1.0625 C-15.35097276 0.00601245 -7.77584179 -0.05374053 0 0 Z " fill="#F9F9F9" transform="translate(341.0625,48.9375)"/>
<path d="M0 0 C2.16874252 0.50603992 3.99967627 0.99983813 6 2 C5.39146513 7.85645597 4.26739869 13.3252503 2.71508789 18.9987793 C2.48406876 19.85998383 2.25304962 20.72118835 2.01502991 21.60848999 C1.25617406 24.43184959 0.4896035 27.25304737 -0.27734375 30.07421875 C-0.80959326 32.04610507 -1.34145266 34.01809673 -1.87294006 35.9901886 C-2.9850937 40.11229642 -4.1008859 44.23339576 -5.21948242 48.35375977 C-6.65210488 53.63140272 -8.07726091 58.91102568 -9.49991512 64.19136333 C-10.59647034 68.25920351 -11.69613036 72.32619901 -12.79681587 76.39292336 C-13.32345333 78.33955094 -13.84932184 80.28638672 -14.374403 82.23343468 C-15.10847435 84.9529222 -15.84651619 87.67130079 -16.58569336 90.3894043 C-16.80134949 91.19107529 -17.01700562 91.99274628 -17.23919678 92.81871033 C-18.28699717 96.65520226 -19.41626246 100.34081407 -21 104 C-23.31 104 -25.62 104 -28 104 C-21.48844378 78.73146678 -14.72727739 53.53571863 -7.8125 28.375 C-7.52169996 27.31685215 -7.52169996 27.31685215 -7.22502518 26.23732758 C-4.82079438 17.49041867 -2.41239368 8.74466133 0 0 Z " fill="#EEEEEE" transform="translate(464,13)"/>
<path d="M0 0 C2.475 0.99 2.475 0.99 5 2 C4.41911423 7.40830677 3.48190026 12.53327442 2.03808594 17.78271484 C1.84114639 18.51574829 1.64420685 19.24878174 1.44129944 20.00402832 C0.79412404 22.4077508 0.13933416 24.80932538 -0.515625 27.2109375 C-0.9734956 28.90503923 -1.43090505 30.59926565 -1.88787842 32.29360962 C-3.09111844 36.74970564 -4.30091641 41.20399584 -5.51202393 45.65795898 C-6.48673225 49.24658818 -7.4570051 52.83640874 -8.42697525 56.42632103 C-11.06178509 66.17788246 -13.69890894 75.92881722 -16.364151 85.67211151 C-16.80689471 87.29302777 -17.24826901 88.91431844 -17.68858337 90.5358963 C-18.3734659 93.05688977 -19.06273338 95.57664828 -19.75292969 98.09619141 C-19.96356678 98.87488272 -20.17420387 99.65357403 -20.39122391 100.45586205 C-21.88600636 105.88600636 -21.88600636 105.88600636 -23 107 C-24.99958364 107.04080783 -27.00045254 107.04254356 -29 107 C-26.11566252 94.29532081 -22.83484532 81.72455395 -19.39453125 69.16015625 C-18.86436006 67.21631677 -18.33439054 65.27242227 -17.80461121 63.32847595 C-16.70470221 59.29504875 -15.60277299 55.26218103 -14.49926758 51.22973633 C-13.08348154 46.05571178 -11.67230267 40.88044382 -10.26251698 35.70478153 C-9.17378764 31.70935214 -8.08297726 27.71449333 -6.99149132 23.71981621 C-6.46979934 21.80973452 -5.94868969 19.89949368 -5.42817116 17.98909187 C-4.70524886 15.33728818 -3.97960273 12.6862453 -3.25317383 10.03540039 C-3.03863556 9.24643372 -2.82409729 8.45746704 -2.60305786 7.64459229 C-1.11436407 2.22872814 -1.11436407 2.22872814 0 0 Z " fill="#EEEEEE" transform="translate(457,9)"/>
<path d="M0 0 C1.98 0 3.96 0 6 0 C3.43516576 11.18022059 0.65497488 22.27608421 -2.37109375 33.33984375 C-2.77962213 34.84177772 -3.18790587 36.34377825 -3.59596252 37.84584045 C-4.65835403 41.75374936 -5.72425273 45.66069298 -6.79089355 49.56744385 C-7.86362123 53.49939478 -8.93252618 57.4323847 -10.00195312 61.36523438 C-12.32699652 69.9122504 -14.66134812 78.45669862 -17 87 C-17.29239563 88.06970032 -17.58479126 89.13940063 -17.88604736 90.24151611 C-18.59995411 92.8504987 -19.31667849 95.45867943 -20.03515625 98.06640625 C-20.22863144 98.77393539 -20.42210663 99.48146454 -20.6214447 100.21043396 C-21.27731544 102.57837269 -21.89823407 104.79646814 -23 107 C-24.65 106.34 -26.3 105.68 -28 105 C-27.38413056 98.92543149 -26.14841009 93.27938644 -24.515625 87.40283203 C-24.26349243 86.4782872 -24.01135986 85.55374237 -23.75158691 84.60118103 C-22.92307733 81.56856338 -22.0866883 78.5381829 -21.25 75.5078125 C-20.67047535 73.39423014 -20.09138015 71.28052998 -19.51269531 69.16671753 C-18.30221317 64.74953003 -17.08809867 60.33336349 -15.87109375 55.91796875 C-14.30886972 50.24980266 -12.75336869 44.57981981 -11.20025635 38.90915108 C-10.00621409 34.55077937 -8.80986052 30.19304508 -7.6126709 25.83553696 C-7.03809061 23.7439965 -6.46395239 21.65233454 -5.89025879 19.56055069 C-5.090473 16.64669652 -4.28787086 13.73363375 -3.484375 10.82080078 C-3.24642212 9.95223953 -3.00846924 9.08367828 -2.76330566 8.188797 C-1.11461895 2.2292379 -1.11461895 2.2292379 0 0 Z " fill="#ECECEB" transform="translate(449,8)"/>
<path d="M0 0 C1.65 0.66 3.3 1.32 5 2 C4.44404948 7.99787341 3.51025329 13.5660551 1.89868164 19.36206055 C1.68716965 20.14377625 1.47565765 20.92549194 1.25773621 21.730896 C0.56499907 24.28464471 -0.13725644 26.83566418 -0.83984375 29.38671875 C-1.32740861 31.17537476 -1.81442453 32.96418049 -2.30091858 34.75312805 C-3.31821027 38.4886431 -4.33982161 42.22293794 -5.36499023 45.95629883 C-6.6765512 50.73270852 -7.98077691 55.51107963 -9.28221798 60.29025555 C-10.52818953 64.8647336 -11.77754519 69.43828505 -13.02734375 74.01171875 C-13.26410261 74.87899786 -13.50086147 75.74627697 -13.74479485 76.63983727 C-14.41778201 79.10244228 -15.0931391 81.56438427 -15.76928711 84.02612305 C-15.96624176 84.74782181 -16.16319641 85.46952057 -16.36611938 86.21308899 C-17.46054478 90.18643761 -18.65934571 94.10283428 -20 98 C-23.465 98.495 -23.465 98.495 -27 99 C-21.11641401 76.38929251 -15.08949143 53.81797367 -8.98321533 31.26651382 C-8.43634855 29.2457452 -7.89030865 27.22475475 -7.34448242 25.20370483 C-6.31439694 21.39027517 -5.28051606 17.5778807 -4.24609375 13.765625 C-3.93296738 12.60583633 -3.619841 11.44604767 -3.29722595 10.25111389 C-3.0089241 9.1914592 -2.72062225 8.1318045 -2.42358398 7.04003906 C-2.17172836 6.11096741 -1.91987274 5.18189575 -1.66038513 4.22467041 C-1 2 -1 2 0 0 Z " fill="#EDEDED" transform="translate(472,18)"/>
<path d="M0 0 C1.65 0 3.3 0 5 0 C2.17808156 11.46285393 -0.80528596 22.87571045 -3.87890625 34.2734375 C-4.33691088 35.97537025 -4.79483045 37.67732589 -5.25267029 39.37930298 C-6.20389438 42.91408978 -7.15613482 46.44860069 -8.10913086 49.98291016 C-9.32362914 54.48736433 -10.53552909 58.99251282 -11.74667454 63.49786949 C-12.68849633 67.0002128 -13.63169568 70.50218401 -14.57530022 74.00404739 C-15.0226125 75.66473723 -15.46950779 77.32553944 -15.9159565 78.98646164 C-18.1669537 87.35788315 -20.42436987 95.72101106 -23 104 C-24.32 103.34 -25.64 102.68 -27 102 C-26.38730697 96.02560273 -25.20343199 90.46153136 -23.60742188 84.67822266 C-23.24385338 83.33529648 -23.24385338 83.33529648 -22.87294006 81.96524048 C-22.07683302 79.03004704 -21.27294298 76.09704986 -20.46875 73.1640625 C-19.91165199 71.11773832 -19.35497699 69.07129893 -18.79870605 67.02474976 C-17.63526437 62.74881445 -16.4682306 58.4738823 -15.29833984 54.19970703 C-13.79668113 48.71312448 -12.30171007 43.22474844 -10.80910492 37.73569679 C-9.66139328 33.51629596 -8.51135921 29.29753121 -7.36048889 25.07899094 C-6.8082267 23.05443859 -6.25641707 21.02976273 -5.70506287 19.00496292 C-4.93642567 16.18450748 -4.16495013 13.36484477 -3.39257812 10.54541016 C-3.16397598 9.70490112 -2.93537384 8.86439209 -2.69984436 7.99841309 C-1.11460731 2.22921463 -1.11460731 2.22921463 0 0 Z " fill="#E6E6E6" transform="translate(439,7)"/>
<path d="M0 0 C-2.54059576 11.19522537 -5.36132766 22.28136977 -8.46435547 33.33374023 C-9.1350704 35.72337905 -9.80031899 38.11449252 -10.46484375 40.50585938 C-10.89552242 42.04956594 -11.32650059 43.59318899 -11.7578125 45.13671875 C-11.9536795 45.83987717 -12.14954651 46.54303558 -12.35134888 47.26750183 C-13.46232659 51.21774115 -14.66943927 55.11825341 -16 59 C-16.66 59 -17.32 59 -18 59 C-21.77795265 41.8642862 -20.38783428 25.64794115 -10.875 10.640625 C-3.31952663 0 -3.31952663 0 0 0 Z " fill="#EEEEEE" transform="translate(405,20)"/>
<path d="M0 0 C3.66365969 1.59289552 6.123479 3.44448653 8 7 C8.55685482 11.2957372 8.28425982 13.46193678 6.25 17.3125 C3.03030303 21.15824916 3.03030303 21.15824916 0 22 C-5.35968704 22.42537199 -8.66939687 22.48854141 -13 19 C-15.65969807 16.34030193 -16.86574038 14.78877527 -17.5 11.0625 C-16.86434571 7.16911746 -15.48666337 5.03925523 -13 2 C-8.8071517 -0.59306132 -4.79621998 -0.5577 0 0 Z " fill="#F7F7F7" transform="translate(347,16)"/>
<path d="M0 0 C-2.84865946 11.58247791 -5.87285015 23.11061032 -8.984375 34.625 C-9.44961001 36.35087729 -9.91471577 38.07678942 -10.37969971 39.80273438 C-11.58833949 44.28765895 -12.79870314 48.77211642 -14.00946045 53.25646973 C-15.25086422 57.85558779 -16.49059008 62.45515809 -17.73046875 67.0546875 C-20.15202924 76.03689486 -22.57541614 85.01860831 -25 94 C-26.32 93.34 -27.64 92.68 -29 92 C-28.40990101 83.77679369 -26.31144158 76.12918479 -24.10546875 68.2109375 C-23.71230503 66.78016654 -23.31976433 65.34922426 -22.92781067 63.91812134 C-21.89797023 60.16416717 -20.86010943 56.41247854 -19.82037354 52.66125488 C-18.77606968 48.88870847 -17.73874359 45.11424623 -16.70117188 41.33984375 C-15.52718477 37.06966825 -14.3527083 32.79964239 -13.17192078 28.53134155 C-12.9920931 27.88019693 -12.81226542 27.22905231 -12.62698841 26.55817604 C-12.09906277 24.64933761 -11.56839817 22.74125738 -11.03768921 20.83319092 C-10.31061772 18.14741197 -9.61310328 15.46591284 -8.94888306 12.76495361 C-8.77591107 12.07555506 -8.60293909 11.3861565 -8.42472553 10.67586708 C-7.94698633 8.76222278 -7.48162875 6.84549974 -7.01704407 4.92861938 C-5.62761339 0.92769773 -4.22712819 0 0 0 Z " fill="#E7E7E7" transform="translate(429,8)"/>
<path d="M0 0 C0.99 0 1.98 0 3 0 C4.32 2.31 5.64 4.62 7 7 C7.33 4.69 7.66 2.38 8 0 C8.99 0 9.98 0 11 0 C11 4.62 11 9.24 11 14 C7 13 7 13 4.75 9.9375 C4.1725 8.968125 3.595 7.99875 3 7 C2.67 9.31 2.34 11.62 2 14 C1.34 14 0.68 14 0 14 C0 9.38 0 4.76 0 0 Z " fill="#DBDBDB" transform="translate(337,128)"/>
<path d="M0 0 C2.57271448 2.22968588 2.95311909 3.62495274 3.375 7 C2.94923246 10.40614032 2.63769276 11.78774156 0 14 C-3.5 14.5 -3.5 14.5 -7 14 C-9.62541413 11.79803976 -9.9445448 10.38026421 -10.4375 7 C-10 4 -10 4 -8.375 1.625 C-5.30628876 -0.47464453 -3.64607289 -0.62060815 0 0 Z M-5 2 C-7.39564928 3.94967279 -7.39564928 3.94967279 -7.1875 7.5625 C-7.39287806 10.82963695 -7.39287806 10.82963695 -6 12 C-4.33382885 12.04063832 -2.66611905 12.042721 -1 12 C0.38125018 9.23749964 0.19079306 7.05268901 0 4 C-0.66 3.34 -1.32 2.68 -2 2 C-2.99 2 -3.98 2 -5 2 Z " fill="#DFDFDF" transform="translate(412,128)"/>
<path d="M0 0 C0 0.66 0 1.32 0 2 C-2.31 2.66 -4.62 3.32 -7 4 C-7.93423645 7.01031744 -8.04449911 7.86650268 -7 11 C-5.35 11.33 -3.7 11.66 -2 12 C-2 11.01 -2 10.02 -2 9 C-2.99 9 -3.98 9 -5 9 C-5 8.01 -5 7.02 -5 6 C-3.02 6 -1.04 6 1 6 C1 8.64 1 11.28 1 14 C-7.21324503 14.61986755 -7.21324503 14.61986755 -10.0625 12.375 C-11.27652573 9.29946814 -11.47842171 7.28060601 -11 4 C-8.02080717 -0.52837311 -5.15974216 -0.39690324 0 0 Z " fill="#F6F6F6" transform="translate(437,128)"/>
<path d="M0 0 C1.875 1 1.875 1 3 3 C3.53653931 6.57692871 3.65701652 9.76326302 1.9375 13 C-1.16867275 14.60318593 -3.57990979 14.42751128 -7 14 C-9 12.4375 -9 12.4375 -10 10 C-9.87890756 6.54886548 -9.63213135 4.03137221 -7.8125 1.0625 C-5.08912093 -0.5339636 -3.09046979 -0.38630872 0 0 Z M-5 2 C-7.31563087 3.88500271 -7.31563087 3.88500271 -7.25 7 C-7.31563087 10.11499729 -7.31563087 10.11499729 -5 12 C-2.39719432 11.67958603 -2.39719432 11.67958603 0 11 C0.80967438 8.08517222 1.21845993 6.53886783 0.0625 3.6875 C-0.288125 3.130625 -0.63875 2.57375 -1 2 C-2.32 2 -3.64 2 -5 2 Z " fill="#E2E2E2" transform="translate(369,128)"/>
<path d="M0 0 C0.99 0 1.98 0 3 0 C3 1.98 3 3.96 3 6 C4.98 6 6.96 6 9 6 C9 4.02 9 2.04 9 0 C9.66 0 10.32 0 11 0 C11 4.62 11 9.24 11 14 C10.34 14 9.68 14 9 14 C9 12.02 9 10.04 9 8 C7.02 8 5.04 8 3 8 C3 9.98 3 11.96 3 14 C2.01 14 1.02 14 0 14 C0 9.38 0 4.76 0 0 Z " fill="#DCDCDC" transform="translate(313,128)"/>
<path d="M0 0 C0.94875 0.04125 1.8975 0.0825 2.875 0.125 C2.875 0.785 2.875 1.445 2.875 2.125 C1.225 2.125 -0.425 2.125 -2.125 2.125 C-1.795 3.115 -1.465 4.105 -1.125 5.125 C-0.465 5.41375 0.195 5.7025 0.875 6 C2.875 7.125 2.875 7.125 3.75 9.625 C3.79125 10.45 3.8325 11.275 3.875 12.125 C1.875 14.125 1.875 14.125 -1.75 14.25 C-2.86375 14.20875 -3.9775 14.1675 -5.125 14.125 C-5.125 13.135 -5.125 12.145 -5.125 11.125 C-2.155 11.62 -2.155 11.62 0.875 12.125 C0.545 11.135 0.215 10.145 -0.125 9.125 C-1.115 8.691875 -1.115 8.691875 -2.125 8.25 C-4.125 7.125 -4.125 7.125 -5 4.625 C-5.04125 3.8 -5.0825 2.975 -5.125 2.125 C-3.125 0.125 -3.125 0.125 0 0 Z " fill="#E4E4E4" transform="translate(489.125,127.875)"/>
<path d="M0 0 C2.64 0 5.28 0 8 0 C8 0.66 8 1.32 8 2 C6.02 2 4.04 2 2 2 C2 3.32 2 4.64 2 6 C3.98 6 5.96 6 8 6 C8 6.66 8 7.32 8 8 C6.02 8 4.04 8 2 8 C2 9.32 2 10.64 2 12 C3.98 12 5.96 12 8 12 C8 12.66 8 13.32 8 14 C5.36 14 2.72 14 0 14 C0 9.38 0 4.76 0 0 Z " fill="#F7F7F7" transform="translate(272,128)"/>
<path d="M0 0 C2.64 0 5.28 0 8 0 C8 0.66 8 1.32 8 2 C6.02 2 4.04 2 2 2 C2 3.32 2 4.64 2 6 C3.65 6 5.3 6 7 6 C7 6.66 7 7.32 7 8 C5.35 8 3.7 8 2 8 C2 9.32 2 10.64 2 12 C3.98 12 5.96 12 8 12 C8 12.66 8 13.32 8 14 C5.36 14 2.72 14 0 14 C0 9.38 0 4.76 0 0 Z " fill="#F5F5F5" transform="translate(465,128)"/>
<path d="M0 0 C0 0.66 0 1.32 0 2 C-2.31 2.66 -4.62 3.32 -7 4 C-7 6.31 -7 8.62 -7 11 C-4.69 11.33 -2.38 11.66 0 12 C0 12.66 0 13.32 0 14 C-7.40256709 14.48541424 -7.40256709 14.48541424 -10 12.375 C-11.29618989 9.296549 -11.48288863 7.31123632 -11 4 C-8.02080717 -0.52837311 -5.15974216 -0.39690324 0 0 Z " fill="#ECECEC" transform="translate(302,128)"/>
<path d="M0 0 C3.63 0 7.26 0 11 0 C11 0.66 11 1.32 11 2 C9.68 2 8.36 2 7 2 C7 5.96 7 9.92 7 14 C6.01 14 5.02 14 4 14 C4 10.04 4 6.08 4 2 C2.68 2 1.36 2 0 2 C0 1.34 0 0.68 0 0 Z " fill="#FFFFFF" transform="translate(250,128)"/>
<path d="M0 0 C0.99 0 1.98 0 3 0 C3 4.62 3 9.24 3 14 C2.01 14 1.02 14 0 14 C0 9.38 0 4.76 0 0 Z " fill="#F9F9F9" transform="translate(450,128)"/>
<path d="M0 0 C0.66 0 1.32 0 2 0 C2 3.96 2 7.92 2 12 C3.98 12 5.96 12 8 12 C8 12.66 8 13.32 8 14 C5.36 14 2.72 14 0 14 C0 9.38 0 4.76 0 0 Z " fill="#FFFFFF" transform="translate(384,128)"/>
<path d="M0 0 C1.670625 0.061875 1.670625 0.061875 3.375 0.125 C3.375 0.785 3.375 1.445 3.375 2.125 C1.065 2.785 -1.245 3.445 -3.625 4.125 C-3.955 5.775 -4.285 7.425 -4.625 9.125 C-5.615 8.135 -6.605 7.145 -7.625 6.125 C-4.84462617 0.16705607 -4.84462617 0.16705607 0 0 Z " fill="#CACACA" transform="translate(298.625,127.875)"/>
<path d="M0 0 C1.670625 0.061875 1.670625 0.061875 3.375 0.125 C3.375 0.785 3.375 1.445 3.375 2.125 C1.704375 2.5271875 1.704375 2.5271875 0 2.9375 C-3.84340951 3.78309019 -3.84340951 3.78309019 -5.625 7.125 C-6.285 6.795 -6.945 6.465 -7.625 6.125 C-4.84462617 0.16705607 -4.84462617 0.16705607 0 0 Z " fill="#DFDFDF" transform="translate(433.625,127.875)"/>
<path d="M0 0 C1.4540625 0.0309375 1.4540625 0.0309375 2.9375 0.0625 C2.9375 0.7225 2.9375 1.3825 2.9375 2.0625 C1.2875 2.0625 -0.3625 2.0625 -2.0625 2.0625 C-2.3925 2.7225 -2.7225 3.3825 -3.0625 4.0625 C-4.0525 4.5575 -4.0525 4.5575 -5.0625 5.0625 C-3.9375 0.08035714 -3.9375 0.08035714 0 0 Z " fill="#D7D7D7" transform="translate(489.0625,127.9375)"/>
</svg>
